<svg id="svg" xmlns="http://www.w3.org/2000/svg" xmlns:xlink="http://www.w3.org/1999/xlink" width="400" height="400" viewBox="0, 0, 400,400"><g id="svgg"><path id="path0" d="M230.151 76.291 C 225.529 77.966,224.864 79.650,225.091 89.104 L 225.266 96.401 227.539 98.417 L 229.813 100.433 229.667 109.496 L 229.521 118.559 211.968 102.900 C 195.767 88.447,194.265 87.241,192.471 87.238 C 190.627 87.234,92.349 173.725,87.888 179.278 C 80.695 188.229,87.895 201.784,99.417 200.986 L 102.128 200.798 102.128 258.644 L 102.128 316.489 93.351 316.489 C 85.284 316.489,84.489 316.575,83.511 317.553 C 82.032 319.032,82.141 321.551,83.752 323.162 L 85.058 324.468 191.500 324.468 C 270.673 324.468,298.240 324.311,299.104 323.857 C 300.709 323.012,301.046 322.373,301.056 320.162 C 301.070 316.895,300.111 316.489,292.378 316.489 L 285.638 316.489 285.638 309.043 L 285.638 301.596 300.290 301.596 L 314.942 301.596 316.248 300.290 C 318.240 298.297,318.107 297.909,309.573 280.848 L 301.592 264.894 303.384 264.894 C 309.650 264.894,309.332 262.272,301.064 245.745 C 292.955 229.536,293.553 231.576,296.814 231.262 C 303.383 230.631,303.230 228.603,295.479 213.598 C 288.447 199.986,288.711 200.895,291.540 200.048 C 296.616 198.527,300.520 191.965,299.827 186.118 C 299.220 180.992,297.949 179.509,282.551 165.957 L 275.600 159.840 275.566 129.981 L 275.532 100.122 276.887 99.234 C 282.123 95.804,281.875 80.015,276.536 76.862 C 274.176 75.468,233.792 74.971,230.151 76.291 M263.963 83.862 L 272.340 84.209 272.340 88.381 L 272.340 92.553 252.660 92.553 L 232.979 92.553 232.979 88.032 L 232.979 83.511 244.282 83.512 C 250.499 83.513,259.355 83.671,263.963 83.862 M241.760 140.452 C 293.736 186.812,292.890 185.979,291.467 189.415 C 290.670 191.339,288.127 193.080,286.110 193.083 C 284.273 193.086,287.010 195.421,238.090 152.128 C 194.545 113.591,193.691 112.884,191.431 113.481 C 190.732 113.666,171.609 130.249,148.936 150.333 C 95.721 197.472,100.886 193.085,98.603 193.085 C 94.315 193.085,91.776 188.141,94.282 184.670 C 95.458 183.040,191.852 96.809,192.498 96.809 C 192.679 96.809,214.847 116.448,241.760 140.452 M267.553 126.361 C 267.553 146.888,267.417 152.107,266.888 151.782 C 266.523 151.558,259.820 145.656,251.995 138.669 L 237.766 125.963 237.766 113.248 L 237.766 100.532 252.660 100.532 L 267.553 100.532 267.553 126.361 M220.745 147.830 C 235.811 161.146,252.277 175.721,257.335 180.217 L 266.532 188.392 256.936 207.227 C 245.482 229.710,245.327 230.502,252.250 231.216 L 255.297 231.530 248.127 245.689 C 244.184 253.477,240.957 260.397,240.957 261.066 C 240.957 262.953,243.238 264.894,245.455 264.894 C 247.905 264.894,248.422 263.490,239.679 280.565 C 235.466 288.795,231.968 295.995,231.905 296.567 C 231.367 301.520,231.619 301.596,248.670 301.596 L 263.298 301.596 263.298 308.777 L 263.298 315.957 242.819 315.957 L 222.340 315.957 222.340 294.707 C 222.340 266.913,221.678 264.047,213.358 255.851 C 197.099 239.834,171.214 245.795,162.816 267.490 L 161.453 271.011 161.280 293.484 L 161.107 315.957 135.607 315.957 L 110.106 315.957 110.106 272.938 L 110.106 229.918 112.373 230.173 C 121.288 231.178,124.971 226.077,124.988 212.698 C 124.998 205.496,125.148 203.731,125.798 203.191 C 127.121 202.093,128.016 203.420,128.337 206.954 C 129.288 217.445,141.634 220.097,146.723 210.904 C 147.497 209.506,147.639 206.376,147.872 185.650 L 148.138 161.991 170.204 142.477 C 182.340 131.744,192.513 123.110,192.810 123.290 C 193.108 123.470,205.678 134.513,220.745 147.830 M182.919 165.626 C 163.741 172.396,158.207 196.603,172.557 210.954 C 189.911 228.308,219.109 216.086,219.143 191.453 C 219.169 172.710,200.518 159.413,182.919 165.626 M139.362 189.039 C 139.362 206.122,139.280 207.896,138.475 208.205 C 137.081 208.740,136.520 207.720,136.128 203.936 C 135.088 193.887,122.681 191.150,118.218 199.984 C 117.119 202.159,117.021 203.080,117.021 211.244 L 117.021 220.136 115.620 221.238 C 111.093 224.799,110.101 222.362,110.134 207.753 L 110.162 195.479 124.521 182.846 C 132.418 175.898,138.988 170.213,139.120 170.213 C 139.253 170.213,139.362 178.684,139.362 189.039 M187.766 180.319 L 187.766 187.766 180.283 187.766 L 172.801 187.766 173.152 186.569 C 174.658 181.434,178.463 176.809,183.079 174.502 C 187.982 172.052,187.766 171.785,187.766 180.319 M200.327 174.200 C 205.002 176.529,210.638 183.420,210.638 186.807 C 210.638 187.685,210.013 187.766,203.191 187.766 L 195.745 187.766 195.745 180.319 C 195.745 171.777,195.669 171.878,200.327 174.200 M241.975 190.044 C 238.111 193.010,240.218 198.696,245.130 198.557 C 251.111 198.388,250.670 189.396,244.681 189.396 C 243.657 189.396,242.439 189.687,241.975 190.044 M277.059 197.465 C 278.514 198.691,290.957 221.606,290.957 223.059 C 290.957 223.249,283.535 223.404,274.463 223.404 L 257.968 223.404 260.427 218.484 C 261.779 215.778,265.153 209.194,267.924 203.853 L 272.962 194.142 274.147 195.076 C 274.799 195.590,276.110 196.665,277.059 197.465 M187.766 203.168 L 187.766 210.591 185.665 209.850 C 180.013 207.856,175.668 203.535,173.697 197.947 L 172.920 195.745 180.343 195.745 L 187.766 195.745 187.766 203.168 M210.399 197.207 C 209.105 202.539,203.045 208.453,196.941 210.340 L 195.745 210.710 195.745 203.227 L 195.745 195.745 203.249 195.745 L 210.754 195.745 210.399 197.207 M275.425 205.608 C 274.897 206.766,274.972 207.123,275.946 208.097 C 277.408 209.560,279.787 208.736,279.787 206.767 C 279.787 204.090,276.513 203.220,275.425 205.608 M268.191 213.404 C 266.483 215.112,268.116 217.928,270.472 217.336 C 271.732 217.020,272.090 216.228,271.818 214.362 C 271.594 212.818,269.366 212.230,268.191 213.404 M214.932 228.529 C 211.385 233.038,216.962 238.615,221.471 235.068 C 223.374 233.571,223.463 229.996,221.641 228.284 C 219.804 226.558,216.385 226.683,214.932 228.529 M291.096 243.886 C 294.530 250.763,297.340 256.507,297.340 256.652 C 297.340 256.797,287.033 256.915,274.435 256.915 L 251.531 256.915 258.023 244.149 L 264.515 231.383 274.683 231.383 L 284.851 231.383 291.096 243.886 M162.476 235.880 C 159.544 238.812,161.634 243.617,165.841 243.617 C 168.508 243.617,170.426 241.726,170.426 239.096 C 170.426 235.003,165.390 232.966,162.476 235.880 M276.608 238.285 C 274.599 240.295,277.362 243.281,279.551 241.465 C 280.650 240.553,280.500 238.432,279.290 237.785 C 277.919 237.051,277.825 237.068,276.608 238.285 M128.433 244.923 C 125.426 247.930,127.438 252.660,131.723 252.660 C 134.509 252.660,136.170 250.999,136.170 248.213 C 136.170 244.079,131.333 242.022,128.433 244.923 M265.000 245.851 C 263.585 247.266,264.679 249.468,266.797 249.468 C 268.389 249.468,269.339 248.170,268.932 246.549 C 268.561 245.071,266.199 244.652,265.000 245.851 M227.321 253.814 C 223.160 255.829,225.007 262.476,229.728 262.476 C 232.691 262.476,234.284 260.883,234.284 257.920 C 234.284 254.263,230.726 252.165,227.321 253.814 M196.702 255.593 C 198.545 256.027,200.759 256.748,201.622 257.194 L 203.191 258.006 203.191 265.705 C 203.191 274.126,202.706 275.532,199.799 275.532 C 198.192 275.532,197.572 274.736,197.108 272.074 C 195.705 264.030,185.645 261.006,180.040 266.944 C 177.820 269.296,177.215 271.379,177.168 276.827 C 177.097 285.144,170.588 287.530,169.410 279.671 C 167.282 265.483,182.332 252.205,196.702 255.593 M299.734 279.255 L 306.919 293.617 274.736 293.617 C 257.035 293.617,242.553 293.495,242.553 293.346 C 242.553 292.932,254.202 269.720,255.698 267.154 L 257.016 264.894 274.783 264.894 L 292.549 264.894 299.734 279.255 M213.300 270.668 C 214.287 273.809,214.362 275.548,214.362 295.269 L 214.362 316.489 191.755 316.489 L 169.149 316.489 169.149 304.122 L 169.149 291.755 173.310 291.755 C 181.171 291.755,184.674 287.897,185.106 278.762 C 185.393 272.698,185.671 271.809,187.277 271.809 C 188.432 271.809,189.115 273.110,189.638 276.304 C 190.770 283.223,201.388 285.865,207.279 280.694 C 210.175 278.151,211.143 275.540,211.167 270.213 C 211.189 265.126,211.587 265.211,213.300 270.668 M272.979 269.787 C 271.982 270.784,272.226 272.774,273.424 273.415 C 275.706 274.636,277.827 272.514,276.606 270.233 C 275.965 269.035,273.976 268.790,272.979 269.787 M140.997 271.500 C 138.128 274.555,140.232 279.255,144.469 279.255 C 147.216 279.255,148.936 277.477,148.936 274.638 C 148.936 270.660,143.722 268.600,140.997 271.500 M290.532 280.957 C 288.824 282.666,290.456 285.481,292.812 284.890 C 294.072 284.573,294.431 283.782,294.159 281.915 C 293.934 280.371,291.706 279.783,290.532 280.957 M257.005 282.912 C 256.043 283.521,256.427 286.190,257.580 286.912 C 258.883 287.728,260.326 286.723,260.548 284.844 C 260.726 283.339,259.976 282.463,258.511 282.463 C 258.072 282.463,257.394 282.665,257.005 282.912 M122.300 297.831 C 119.341 300.790,121.381 305.851,125.532 305.851 C 127.820 305.851,130.319 303.352,130.319 301.064 C 130.319 298.776,127.820 296.277,125.532 296.277 C 124.387 296.277,123.361 296.770,122.300 297.831 M277.660 309.043 L 277.660 316.489 274.468 316.489 L 271.277 316.489 271.277 309.043 L 271.277 301.596 274.468 301.596 L 277.660 301.596 277.660 309.043 " stroke="none" fill="#FFFFFF" fill-rule="evenodd"></path></g></svg>