<svg xmlns="http://www.w3.org/2000/svg" xmlns:xlink="http://www.w3.org/1999/xlink" version="1.1" x="0px" y="0px" viewBox="0 0 96 120" style="enable-background:new 0 0 96 96;" xml:space="preserve"><path d="M6.0908,83.8096v4.6104c0,0.3311,0.2686,0.5996,0.5996,0.5996h82.6191c0.3311,0,0.5996-0.2686,0.5996-0.5996v-4.6104  c0-0.3311-0.2686-0.5996-0.5996-0.5996h-9.98c1.4515-1.0916,2.3502-2.8229,2.3502-4.7295c0-2.3148-1.3307-4.364-3.3557-5.3209  c2.0306-0.9638,3.3557-3.0098,3.3557-5.3198c0-2.3124-1.33-4.3617-3.3547-5.3206c2.03-0.9649,3.3547-3.0112,3.3547-5.3191  c0-2.304-1.3234-4.353-3.3478-5.3243c2.0262-0.966,3.3478-3.0137,3.3478-5.3261c0-0.0631-0.0151-0.1214-0.0171-0.1839l0.2456,0.2308  c1.3252,1.25,3.4258,1.2812,4.6797,0.0645c0,0,0-0.001,0.001-0.001c0.6631-0.6455,1.0215-1.5078,1.0078-2.4277  c-0.0117-0.9121-0.3887-1.7559-1.0586-2.3721l-1.5293-1.4239l-0.5342-4.4687c-0.7256-6.0488-4.4062-11.2803-9.8506-13.9971  c-0.4307-0.2119-0.7568-0.6152-0.874-1.082l-0.9092-3.5195c-0.6006-2.3447-2.5332-4.1738-4.9268-4.6592  c-1.4893-0.29-2.8984-0.9551-4.0771-1.9268L62.4102,9.625c-2.5781-2.1152-5.9453-3.0234-9.2451-2.499l-4.4004,0.7002  c-0.0521,0.0085-0.0937,0.0406-0.1408,0.0617c-0.421-0.0526-0.8435-0.0524-1.2673,0.0004  c-0.0474-0.0213-0.0892-0.0535-0.1417-0.0621L42.8145,7.126c-3.3008-0.5254-6.667,0.3838-9.2422,2.4971l-1.4346,1.1631  c-1.1748,0.9688-2.583,1.6338-4.0771,1.9248c-2.3906,0.4854-4.3223,2.3135-4.9219,4.6572l-0.9111,3.5264  c-0.1152,0.4619-0.4414,0.8643-0.875,1.0771c-5.4404,2.7148-9.1221,7.9473-9.8486,13.9961L10.97,40.4423l-1.5149,1.4152  c-0.6768,0.6182-1.0645,1.5049-1.0645,2.4326c0,0.8174,0.3037,1.6035,0.8525,2.209c0.5947,0.667,1.4141,1.0557,2.3066,1.0947  c0.0508,0.0029,0.1016,0.0039,0.1514,0.0039c0.8398,0,1.6328-0.3125,2.2461-0.8877l0.3917-0.3669  c-0.0023,0.0707-0.0186,0.1352-0.0186,0.2068c0,2.3052,1.3248,4.3548,3.3509,5.3256c-2.0276,0.9721-3.3509,3.021-3.3509,5.3248  c0,2.3018,1.3282,4.3489,3.3592,5.3187c-2.0325,0.964-3.3592,3.0114-3.3592,5.321c0,2.3159,1.3322,4.3658,3.3587,5.3221  c-2.032,0.97-3.3587,3.017-3.3587,5.3185c0,1.9077,0.8995,3.64,2.3457,4.7295H6.6904C6.3594,83.21,6.0908,83.4785,6.0908,83.8096z   M57.4893,83.21V63.1904c0-2.5459-0.9854-4.9346-2.7754-6.7256c-0.2549-0.2539-0.5518-0.5117-0.9707-0.8428  C52.083,54.3584,50.0967,53.6904,48,53.6904c-2.1094,0-4.0986,0.6719-5.752,1.9414c-2.3887,1.8115-3.7578,4.5664-3.7578,7.5586  V83.21H37v-19.29v-0.7295c0-3.459,1.583-6.6455,4.3457-8.7451c1.9141-1.4688,4.2148-2.2461,6.6543-2.2461  c2.4297,0,4.7314,0.7773,6.6572,2.249c0.3896,0.2939,0.7627,0.6191,1.1094,0.9658c2.0723,2.0732,3.2139,4.835,3.2139,7.7764V83.21  H57.4893z M39.6895,83.21V63.1904c0-2.6133,1.1973-5.0195,3.2861-6.6045c1.4453-1.1094,3.1826-1.6963,5.0244-1.6963  c1.832,0,3.5664,0.584,5.0078,1.6807c0.373,0.2949,0.6377,0.5244,0.8574,0.7432c1.5635,1.5645,2.4248,3.6514,2.4248,5.877V83.21  H39.6895z M23.8008,83.21c1.4586-1.1095,2.3511-2.8936,2.3486-4.7295c0-1.512-0.5892-2.9413-1.5879-4.0205h9.1182  c0.3311,0,0.5996-0.2686,0.5996-0.5996s-0.2686-0.5996-0.5996-0.5996H23.021c-0.0626-0.034-0.1243-0.0697-0.188-0.1016  c3.1755-1.4814,4.2973-5.7716,2.3027-8.6396h10.665V83.21H23.8008z M56.6143,54.5664c-0.3848-0.3857-0.7998-0.7471-1.2305-1.0732  C53.249,51.8613,50.6953,51,48,51c-2.7061,0-5.2598,0.8623-7.3828,2.4922c-3.0615,2.3262-4.8164,5.8613-4.8164,9.6982v0.1299  H24.0576c-0.3871-0.3107-0.7864-0.5866-1.2266-0.8008c1.9963-0.9701,3.3284-3.0962,3.3184-5.3193c0-0.9313-0.22-1.822-0.6227-2.6309  h12.5436c0.3311,0,0.5996-0.2686,0.5996-0.5996s-0.2686-0.5996-0.5996-0.5996H24.7365c-0.5093-0.6366-1.1833-1.1202-1.9035-1.4922  c1.9972-0.9737,3.3264-3.1033,3.3164-5.3281c0-0.6641-0.116-1.3088-0.3292-1.9316h6.3585c0.3311,0,0.5996-0.2686,0.5996-0.5996  s-0.2686-0.5996-0.5996-0.5996h-6.929c-1.0167-1.6937-2.8811-2.6961-4.8191-2.7852l6.1988-5.8154l0.1479-0.1387h12.9492  c0.381,0.4724,0.89,0.815,1.4727,0.9824c0.6799,3.0988,3.6162,5.4323,6.791,5.3877c3.8438,0,6.9697-3.126,6.9697-6.9697  c0-3.8486-3.126-6.9795-6.9697-6.9795c-1.106,0.0017-2.1858,0.2657-3.1709,0.7627v-3.1338h13.6642l1.6192,1.5007l7.8188,7.2503  H61.21c-0.3311,0-0.5996,0.2686-0.5996,0.5996s0.2686,0.5996,0.5996,0.5996h8.0029l6.3477,5.9541  c-1.5289,0.0839-3.0286,0.716-4.0869,1.835c-0.1316,0.1396-0.2593,0.2921-0.3832,0.4553c-0.1177,0.1511-0.2245,0.3105-0.3275,0.4744  c-0.0048,0.0076-0.0101,0.0139-0.0148,0.0215H58.21H42.6797c-0.3311,0-0.5996,0.2686-0.5996,0.5996s0.2686,0.5996,0.5996,0.5996  H58.21h11.963c-0.2144,0.6187-0.3321,1.2633-0.3321,1.9307c-0.01,2.2272,1.3244,4.3571,3.3242,5.3291  c-0.7206,0.371-1.3941,0.855-1.9025,1.4912H59.5801c-0.3311,0-0.5996,0.2686-0.5996,0.5996s0.2686,0.5996,0.5996,0.5996h10.8912  c-1.5037,2.8166-0.188,6.597,2.6888,7.9482c-0.1172,0.0573-0.2252,0.1319-0.3384,0.1971c-0.0872,0.0502-0.1754,0.0966-0.26,0.1514  c-0.2064,0.1338-0.4017,0.2841-0.5908,0.4445H61.8604c-0.3311,0-0.5996,0.2686-0.5996,0.5996s0.2686,0.5996,0.5996,0.5996h9.015  c-0.664,0.9733-1.0345,2.1319-1.0345,3.3301c-0.0105,2.224,1.3241,4.3453,3.3184,5.3184c-0.0645,0.032-0.1273,0.0681-0.1907,0.1025  H61.4297c-0.3311,0-0.5996,0.2686-0.5996,0.5996s0.2686,0.5996,0.5996,0.5996h10.0026c-1.0017,1.0823-1.5914,2.5114-1.5914,4.0205  c-0.0025,1.8369,0.8928,3.6206,2.3525,4.7295H60.1797V63.1904C60.1797,59.9277,58.9141,56.8652,56.6143,54.5664z M42.5117,35.7021  c0.7593-0.1511,1.4236-0.6002,1.8313-1.2286c0.2017,1.8439,1.7495,3.2881,3.6462,3.2881c2.0332,0,3.6875-1.6533,3.6875-3.6865  s-1.6543-3.6875-3.6875-3.6875c-1.3557,0-2.5295,0.7437-3.1699,1.8367v-2.9583c0.9347-0.651,2.0385-0.9535,3.1709-0.9662  c3.1816,0,5.7705,2.5928,5.7705,5.7803c0,3.1816-2.5889,5.7705-5.7705,5.7705c-2.4858,0.0153-4.8688-1.7216-5.5163-4.1373  c0.013-0.0026,0.0261-0.0051,0.0388-0.0082L42.5117,35.7021z M49.0215,15.96l8.1679,7.5703H44.8193v-4.4004  c0-0.5742,0.2256-1.1426,0.6152-1.5566l1.5352-1.6162C47.5439,15.4199,48.4453,15.417,49.0215,15.96z M45.502,34.0752  c0-1.3721,1.1162-2.4883,2.4873-2.4883c1.3721,0,2.4883,1.1162,2.4883,2.4883c0,1.3711-1.1162,2.4873-2.4883,2.4873  C46.6182,36.5625,45.502,35.4463,45.502,34.0752z M39.1201,32.9199c-0.0001,0.2793,0.0306,0.3656,0.0605,0.5605H28.0684  l2.2139-2.0547c0.1543,0.4365,0.4141,0.835,0.7627,1.1543c0.5996,0.5488,1.3828,0.8096,2.2012,0.7373  c1.4434-0.1348,2.5732-1.4336,2.5732-2.957v-3.3301c0-0.4473,0.1709-0.8594,0.4844-1.166c0.3125-0.3115,0.7266-0.4844,1.166-0.4844  c0.9102,0,1.6504,0.7402,1.6504,1.6504V32.9199z M80.4805,78.4805c0,2.0482-1.2938,3.8455-3.2351,4.4814  c-0.0023,0.0008-0.0048,0.0002-0.0071,0.001c-0.4551,0.1621-0.9521,0.2441-1.4775,0.2441c-0.0035,0-0.0065,0.002-0.01,0.002  c-2.5982-0.005-4.7107-2.1243-4.7107-4.7286c0-1.6855,0.9121-3.2568,2.3828-4.1025c0.6914-0.4043,1.499-0.6182,2.3369-0.6182  c0.5283,0,1.0254,0.083,1.4951,0.251C79.1836,74.6387,80.4805,76.4346,80.4805,78.4805z M80.4805,67.8398  c0,2.0459-1.2969,3.8418-3.2432,4.4756c-0.4521,0.1621-0.9492,0.2451-1.4775,0.2451c-2.6025,0-4.7197-2.1182-4.7197-4.7207  c0-1.3262,0.5625-2.5967,1.5469-3.4893c0.8561-0.7919,1.9796-1.2283,3.1636-1.2306c0.0036,0.0001,0.0066,0.0021,0.0103,0.0021  c0.5254,0,1.0225,0.082,1.4775,0.2441c0.0015,0.0005,0.0032,0.0002,0.0047,0.0008c0.0038,0.0013,0.0081,0.0017,0.0119,0.0031  C79.1836,63.999,80.4805,65.7949,80.4805,67.8398z M80.4805,57.2002c0,2.0449-1.2969,3.8408-3.2324,4.4717  c-0.4854,0.1641-0.9854,0.248-1.4883,0.248c-2.6025,0-4.7197-2.1172-4.7197-4.7197c0-1.042,0.3379-2.0332,0.9795-2.8701  c0.8701-1.1582,2.2676-1.8506,3.7402-1.8506c0.384,0,0.7507,0.0585,1.1074,0.145c0.124,0.0313,0.2526,0.053,0.3712,0.0953  c0.0077,0.0027,0.0156,0.0017,0.0234,0.0041C79.1868,53.3646,80.4805,55.1608,80.4805,57.2002z M77.2538,51.0284  c-0.0023,0.0007-0.0045,0.0001-0.0067,0.0009c-0.4834,0.1641-0.9834,0.2471-1.4863,0.2471c-0.0047,0-0.0085,0.0026-0.0132,0.0027  c-2.5967-0.0068-4.7075-2.1251-4.7075-4.7292c0-0.7808,0.1882-1.5267,0.5555-2.2183c0.0043-0.007,0.0127-0.0098,0.0168-0.017  c0.2266-0.4023,0.4736-0.7461,0.7344-1.0234c0.1436-0.1523,0.3057-0.2852,0.4619-0.416c0.0945-0.0762,0.1978-0.154,0.3056-0.2266  h0.0001c0.7881-0.5283,1.7031-0.8086,2.6455-0.8086l0.3673,0.0087c0.0004,0,0.0005,0.0001,0.0009,0.0001  c0.0137,0.001,0.1377,0.0137,0.1514,0.0137l0.1934,0.0312c0.123,0.0176,0.2373,0.0342,0.3105,0.0498l0.1885,0.0546l3.2393,3.0167  c0.1787,0.4736,0.2695,0.9893,0.2695,1.5352C80.4805,48.5991,79.1865,50.3965,77.2538,51.0284z M53.3545,8.3115  c2.9561-0.4736,5.9814,0.3438,8.2969,2.2432l1.4258,1.1572c1.3291,1.0957,2.9229,1.8477,4.6035,2.1748  c1.9414,0.3945,3.5107,1.8779,3.998,3.7822l0.9082,3.5156c0.2031,0.8125,0.7529,1.4912,1.5049,1.8613  c5.0781,2.5342,8.5146,7.418,9.1914,13.0645l0.366,3.0602L51.4385,9.1807c-0.1699-0.1582-0.3516-0.3066-0.5479-0.4443  c-0.0079-0.0054-0.0176-0.0101-0.0255-0.0155c-0.0048-0.0033-0.0088-0.0076-0.0135-0.0109L53.3545,8.3115z M12.6953,36.1104  c0.6777-5.6465,4.1143-10.5303,9.1895-13.0635c0.7559-0.3711,1.3047-1.0498,1.5059-1.8574l0.9102-3.5225  c0.4873-1.9023,2.0557-3.3857,3.9932-3.7793c1.6855-0.3281,3.2783-1.0801,4.6035-2.1729l1.4336-1.1621  c1.8818-1.5439,4.2354-2.373,6.6416-2.373c0.5498,0,1.1025,0.0439,1.6523,0.1318l2.5029,0.3975  c-0.0129,0.0089-0.0237,0.0203-0.0366,0.0293c-0.1658,0.1157-0.3217,0.2438-0.4719,0.3785  c-0.025,0.0223-0.0539,0.0401-0.0784,0.0629L12.3301,39.1729L12.6953,36.1104z M13.1299,45.832  c-0.4141,0.3867-0.9463,0.5723-1.5264,0.5635c-0.5674-0.0254-1.0879-0.2725-1.4688-0.6992  c-0.3506-0.3877-0.5449-0.8867-0.5449-1.4062c0-0.5908,0.2461-1.1553,0.6797-1.5518l35.0908-32.6797  c0.4638-0.4348,1.0417-0.7429,1.6675-0.9093c0.0494-0.0131,0.0967-0.0318,0.1467-0.043c0.2709-0.0564,0.5428-0.0848,0.8156-0.0848  c0.2719,0,0.5438,0.0284,0.8146,0.0848c0.5111,0.1146,0.9896,0.3268,1.4079,0.6216c0.1443,0.102,0.2808,0.2128,0.4083,0.3317  l33.4111,31.1104l1.6914,1.5713c0.4258,0.3926,0.666,0.9287,0.6738,1.5078c0.0078,0.5869-0.2217,1.1377-0.6465,1.5518  c-0.7988,0.7764-2.1533,0.7402-3.0225-0.0801l-4.5465-4.2709l-0.1755-0.1656c-0.0022-0.0063-0.0085-0.0106-0.0109-0.0168  c-0.0325-0.085-0.0795-0.1638-0.1479-0.2273L61.0336,25.4565l-1.9056-1.7671l-9.29-8.6104  c-0.0026-0.0024-0.006-0.0029-0.0087-0.0052c-1.0336-0.9614-2.6471-0.9603-3.7042,0.0326l-1.5615,1.6416  c-0.4497,0.4775-0.7555,1.0853-0.8802,1.7292c-0.0416,0.2147-0.0631,0.4333-0.0631,0.6526v5v4.8203v3.9697  c0.0167,2.112-3.3195,2.1542-3.3008,0v-5.8896c0-1.5713-1.2783-2.8496-2.8496-2.8496c-0.7598,0-1.4746,0.2969-2.0088,0.8301  c-0.542,0.5283-0.8408,1.2451-0.8408,2.0195v3.3301c0,0.9102-0.6523,1.6846-1.4824,1.7617  c-0.4785,0.0479-0.9346-0.1084-1.2832-0.4277c-0.3447-0.3154-0.5352-0.7471-0.5352-1.2139v-0.2803  c0-0.2383-0.1406-0.4541-0.3594-0.5498c-0.2188-0.0967-0.4727-0.0527-0.6484,0.1104L18.1514,41.04  c-0.0632,0.0584-0.1098,0.1378-0.1439,0.2216l-0.0638,0.0602L13.1299,45.832z M15.5195,46.5498  c0-0.5586,0.0879-1.0752,0.2598-1.5352l3.1656-2.9875c1.638-0.4957,3.5327,0.0289,4.7132,1.2697  c0.259,0.2764,0.5044,0.6178,0.7296,1.0176c0.0035,0.0062,0.011,0.0085,0.0146,0.0145c0.3618,0.6986,0.5479,1.4457,0.5479,2.2208  c0,2.6042-2.1069,4.7224-4.6978,4.7292c-0.0046-0.0001-0.0085-0.0027-0.0132-0.0027c-0.5029,0-1.0029-0.083-1.4863-0.2471  c-0.0034-0.0012-0.007-0.0002-0.0104-0.0013C16.815,50.3885,15.5195,48.5908,15.5195,46.5498z M15.5195,57.2002  c0-2.0392,1.2935-3.8354,3.2232-4.4772c0.0063-0.002,0.0127-0.0011,0.019-0.0033c0.114-0.0406,0.2379-0.0611,0.3569-0.0916  c0.3598-0.0888,0.7314-0.1486,1.1216-0.1486c1.4727,0,2.8701,0.6924,3.7432,1.8555c0.6328,0.8242,0.9668,1.8145,0.9668,2.8652  c0,2.6025-2.1133,4.7197-4.71,4.7197c-0.5029,0-1.0029-0.084-1.4922-0.249C16.8174,61.0322,15.5195,59.2363,15.5195,57.2002z   M15.5195,67.8398c0-2.0435,1.2952-3.838,3.2382-4.4729c0.0013-0.0005,0.0027-0.0002,0.004-0.0007  c0.4551-0.1621,0.9521-0.2441,1.4775-0.2441c0.0044,0,0.008-0.0024,0.0124-0.0025c0.1406,0.0005,0.2806,0.0085,0.4261,0.0162  c0.335,0.041,0.6201,0.0967,0.873,0.1709c0.0011,0.0003,0.0021,0.0002,0.0032,0.0005c0.4205,0.123,0.8047,0.2957,1.1843,0.5356  c1.3569,0.854,2.2254,2.371,2.2119,3.9971c0,2.6025-2.1133,4.7207-4.71,4.7207c-0.5283,0-1.0254-0.083-1.4951-0.251  C16.8164,71.6816,15.5195,69.8857,15.5195,67.8398z M15.5195,78.4805c0-2.0371,1.2979-3.833,3.2432-4.4756  c0.4521-0.1621,0.9492-0.2451,1.4775-0.2451c0.8301,0,1.6348,0.2139,2.332,0.6211c1.4668,0.8379,2.3779,2.4092,2.3779,4.0996  c0,2.6043-2.1085,4.7236-4.7009,4.7286c-0.0035-0.0001-0.0065-0.002-0.01-0.002c-0.5254,0-1.0225-0.082-1.4775-0.2441  c-0.0038-0.0013-0.0078-0.0004-0.0117-0.0016c-0.0016-0.0005-0.0034-0.0007-0.0049-0.0013  C16.8164,82.3311,15.5195,80.5312,15.5195,78.4805z M7.29,84.4092h12.9502h16.1602h2.6895h17.7998h2.6904h16.1797H88.71v3.4111H7.29  V84.4092z"/><path d="M52.8809,67.4814c-1.3252,0-2.4033,1.0781-2.4033,2.4033s1.0781,2.4023,2.4033,2.4023s2.4023-1.0771,2.4023-2.4023  S54.2061,67.4814,52.8809,67.4814z M52.8809,71.0879c-0.6641,0-1.2041-0.54-1.2041-1.2031c0-0.6641,0.54-1.2041,1.2041-1.2041  c0.6631,0,1.2031,0.54,1.2031,1.2041C54.084,70.5479,53.5439,71.0879,52.8809,71.0879z"/><path d="M28.9023,15.4199c-1.8555,1.0449-3.2021,3.0029-3.5146,5.1094c-0.0488,0.3281,0.1777,0.6328,0.5059,0.6816  c0.0293,0.0039,0.0596,0.0059,0.0889,0.0059c0.292,0,0.5488-0.2139,0.5928-0.5117c0.2588-1.748,1.376-3.3721,2.917-4.2402  c0.2881-0.1621,0.3906-0.5283,0.2275-0.8174C29.5576,15.3594,29.1943,15.2549,28.9023,15.4199z"/><path d="M21.3545,25.1738c-3.1963,1.0283-5.7139,3.8145-6.416,7.0986c-0.0693,0.3232,0.1377,0.6426,0.4619,0.7119  c0.042,0.0088,0.084,0.0137,0.126,0.0137c0.2764,0,0.5254-0.1934,0.5859-0.4756c0.6133-2.8711,2.8154-5.3066,5.6094-6.2061  c0.3154-0.1016,0.4893-0.4395,0.3877-0.7549S21.6719,25.0732,21.3545,25.1738z"/><path d="M40.126,9.7852c-1.5576-0.0527-3.085,0.6934-3.9922,1.958c-0.1934,0.2686-0.1318,0.6436,0.1377,0.8369  c0.1055,0.0762,0.2275,0.1123,0.3486,0.1123c0.1875,0,0.3711-0.0869,0.4883-0.25c0.666-0.9258,1.8066-1.499,2.9746-1.458  c0.3379-0.0322,0.6094-0.2471,0.6211-0.5781S40.457,9.7969,40.126,9.7852z"/><path d="M66.4873,16.4648c1.541,0.8682,2.6582,2.4922,2.917,4.2402c0.0439,0.2979,0.3008,0.5117,0.5928,0.5117  c0.0293,0,0.0596-0.002,0.0889-0.0059c0.3281-0.0488,0.5537-0.3535,0.5059-0.6816c-0.3125-2.1064-1.6592-4.0645-3.5146-5.1094  c-0.291-0.165-0.6543-0.0605-0.8174,0.2275C66.0967,15.9365,66.1992,16.3027,66.4873,16.4648z"/><path d="M74.2578,26.3164c2.7939,0.8994,4.9961,3.3359,5.6084,6.2061c0.0605,0.2822,0.3096,0.4756,0.5859,0.4756  c0.042,0,0.084-0.0049,0.126-0.0137c0.3242-0.0693,0.5312-0.3877,0.4619-0.7119c-0.7012-3.2832-3.2188-6.0693-6.415-7.0986  c-0.3135-0.1016-0.6533,0.0723-0.7549,0.3877S73.9424,26.2148,74.2578,26.3164z"/><path d="M55.8965,10.9844c1.1641-0.0439,2.3086,0.5322,2.9746,1.458c0.1172,0.1631,0.3008,0.25,0.4883,0.25  c0.1211,0,0.2432-0.0361,0.3486-0.1123c0.2695-0.1934,0.3311-0.5684,0.1377-0.8369c-0.9062-1.2646-2.4229-2.0107-3.9922-1.958  c-0.3311,0.0117-0.5898,0.29-0.5781,0.6211S55.5625,10.9531,55.8965,10.9844z"/><path d="M75.7607,42.5869c-2.1885,0-3.9678,1.7793-3.9678,3.9668c0,2.1885,1.7793,3.9678,3.9678,3.9678  c0.3311,0,0.5996-0.2686,0.5996-0.5996s-0.2686-0.5996-0.5996-0.5996c-1.5264,0-2.7686-1.2422-2.7686-2.7686  c0-1.5254,1.2422-2.7676,2.7686-2.7676c1.5254,0,2.7676,1.2422,2.7676,2.7676c0,0.3311,0.2686,0.5996,0.5996,0.5996  s0.5996-0.2686,0.5996-0.5996C79.7275,44.3662,77.9482,42.5869,75.7607,42.5869z"/><path d="M75.7607,44.7041c-0.3311,0-0.5996,0.2686-0.5996,0.5996s0.2686,0.5996,0.5996,0.5996c0.3584,0,0.6504,0.292,0.6504,0.6504  s-0.292,0.6504-0.6504,0.6504c-0.3311,0-0.5996,0.2686-0.5996,0.5996s0.2686,0.5996,0.5996,0.5996  c1.0205,0,1.8496-0.8291,1.8496-1.8496S76.7812,44.7041,75.7607,44.7041z"/><path d="M75.7607,53.2324c-2.1885,0-3.9678,1.7793-3.9678,3.9668c0,2.1885,1.7793,3.9678,3.9678,3.9678  c0.3311,0,0.5996-0.2686,0.5996-0.5996s-0.2686-0.5996-0.5996-0.5996c-1.5264,0-2.7686-1.2422-2.7686-2.7686  c0-1.5254,1.2422-2.7676,2.7686-2.7676c1.5254,0,2.7676,1.2422,2.7676,2.7676c0,0.3311,0.2686,0.5996,0.5996,0.5996  s0.5996-0.2686,0.5996-0.5996C79.7275,55.0117,77.9482,53.2324,75.7607,53.2324z"/><path d="M75.7607,55.3496c-0.3311,0-0.5996,0.2686-0.5996,0.5996s0.2686,0.5996,0.5996,0.5996c0.3584,0,0.6504,0.292,0.6504,0.6504  c0,0.3594-0.292,0.6514-0.6504,0.6514c-0.3311,0-0.5996,0.2686-0.5996,0.5996s0.2686,0.5996,0.5996,0.5996  c1.0205,0,1.8496-0.8301,1.8496-1.8506S76.7812,55.3496,75.7607,55.3496z"/><path d="M71.793,67.8447c0,2.1885,1.7793,3.9678,3.9678,3.9678c0.3311,0,0.5996-0.2686,0.5996-0.5996s-0.2686-0.5996-0.5996-0.5996  c-1.5264,0-2.7686-1.2422-2.7686-2.7686c0-1.5254,1.2422-2.7676,2.7686-2.7676c1.5254,0,2.7676,1.2422,2.7676,2.7676  c0,0.3311,0.2686,0.5996,0.5996,0.5996s0.5996-0.2686,0.5996-0.5996c0-2.1875-1.7793-3.9668-3.9668-3.9668  C73.5723,63.8779,71.793,65.6572,71.793,67.8447z"/><path d="M75.7607,65.9951c-0.3311,0-0.5996,0.2686-0.5996,0.5996s0.2686,0.5996,0.5996,0.5996c0.3584,0,0.6504,0.292,0.6504,0.6504  c0,0.3594-0.292,0.6514-0.6504,0.6514c-0.3311,0-0.5996,0.2686-0.5996,0.5996s0.2686,0.5996,0.5996,0.5996  c1.0205,0,1.8496-0.8301,1.8496-1.8506S76.7812,65.9951,75.7607,65.9951z"/><path d="M71.793,78.4902c0,2.1885,1.7793,3.9678,3.9678,3.9678c0.3311,0,0.5996-0.2686,0.5996-0.5996s-0.2686-0.5996-0.5996-0.5996  c-1.5264,0-2.7686-1.2422-2.7686-2.7686c0-1.5254,1.2422-2.7676,2.7686-2.7676c1.5254,0,2.7676,1.2422,2.7676,2.7676  c0,0.3311,0.2686,0.5996,0.5996,0.5996s0.5996-0.2686,0.5996-0.5996c0-2.1875-1.7793-3.9668-3.9668-3.9668  C73.5723,74.5234,71.793,76.3027,71.793,78.4902z"/><path d="M75.7607,76.6406c-0.3311,0-0.5996,0.2686-0.5996,0.5996s0.2686,0.5996,0.5996,0.5996c0.3584,0,0.6504,0.292,0.6504,0.6504  c0,0.3594-0.292,0.6514-0.6504,0.6514c-0.3311,0-0.5996,0.2686-0.5996,0.5996s0.2686,0.5996,0.5996,0.5996  c1.0205,0,1.8496-0.8301,1.8496-1.8506S76.7812,76.6406,75.7607,76.6406z"/><path d="M20.2354,50.5215c0.3311,0,0.5996-0.2686,0.5996-0.5996s-0.2686-0.5996-0.5996-0.5996  c-1.5264,0-2.7686-1.2422-2.7686-2.7686c0-1.5254,1.2422-2.7676,2.7686-2.7676c1.5254,0,2.7676,1.2422,2.7676,2.7676  c-0.0113,0.7781,1.2106,0.7777,1.1992,0c0-2.1875-1.7793-3.9668-3.9668-3.9668c-2.1885,0-3.9678,1.7793-3.9678,3.9668  C16.2676,48.7422,18.0469,50.5215,20.2354,50.5215z"/><path d="M20.2354,44.7041c-0.3311,0-0.5996,0.2686-0.5996,0.5996s0.2686,0.5996,0.5996,0.5996c0.3584,0,0.6504,0.292,0.6504,0.6504  s-0.292,0.6504-0.6504,0.6504c-0.3311,0-0.5996,0.2686-0.5996,0.5996s0.2686,0.5996,0.5996,0.5996  c1.0205,0,1.8496-0.8291,1.8496-1.8496S21.2559,44.7041,20.2354,44.7041z"/><path d="M20.835,60.5674c0-0.3311-0.2686-0.5996-0.5996-0.5996c-1.5264,0-2.7686-1.2422-2.7686-2.7686  c0-1.5254,1.2422-2.7676,2.7686-2.7676c1.5254,0,2.7676,1.2422,2.7676,2.7676c-0.0113,0.7781,1.2106,0.7777,1.1992,0  c0-2.1875-1.7793-3.9668-3.9668-3.9668c-2.1885,0-3.9678,1.7793-3.9678,3.9668c0,2.1885,1.7793,3.9678,3.9678,3.9678  C20.5664,61.167,20.835,60.8984,20.835,60.5674z"/><path d="M20.2354,55.3496c-0.3311,0-0.5996,0.2686-0.5996,0.5996s0.2686,0.5996,0.5996,0.5996c0.3584,0,0.6504,0.292,0.6504,0.6504  c0,0.3594-0.292,0.6514-0.6504,0.6514c-0.3311,0-0.5996,0.2686-0.5996,0.5996s0.2686,0.5996,0.5996,0.5996  c1.0205,0,1.8496-0.8301,1.8496-1.8506S21.2559,55.3496,20.2354,55.3496z"/><path d="M20.835,71.2129c0-0.3311-0.2686-0.5996-0.5996-0.5996c-1.5264,0-2.7686-1.2422-2.7686-2.7686  c0-1.5254,1.2422-2.7676,2.7686-2.7676c1.5254,0,2.7676,1.2422,2.7676,2.7676c-0.0113,0.7781,1.2106,0.7777,1.1992,0  c0-2.1875-1.7793-3.9668-3.9668-3.9668c-2.1885,0-3.9678,1.7793-3.9678,3.9668c0,2.1885,1.7793,3.9678,3.9678,3.9678  C20.5664,71.8125,20.835,71.5439,20.835,71.2129z"/><path d="M20.2354,65.9951c-0.3311,0-0.5996,0.2686-0.5996,0.5996s0.2686,0.5996,0.5996,0.5996c0.3584,0,0.6504,0.292,0.6504,0.6504  c0,0.3594-0.292,0.6514-0.6504,0.6514c-0.3311,0-0.5996,0.2686-0.5996,0.5996s0.2686,0.5996,0.5996,0.5996  c1.0205,0,1.8496-0.8301,1.8496-1.8506S21.2559,65.9951,20.2354,65.9951z"/><path d="M20.2354,82.458c0.3311,0,0.5996-0.2686,0.5996-0.5996s-0.2686-0.5996-0.5996-0.5996c-1.5264,0-2.7686-1.2422-2.7686-2.7686  c0-1.5254,1.2422-2.7676,2.7686-2.7676c1.5254,0,2.7676,1.2422,2.7676,2.7676c0,0.3311,0.2686,0.5996,0.5996,0.5996  s0.5996-0.2686,0.5996-0.5996c0-2.1875-1.7793-3.9668-3.9668-3.9668c-2.1885,0-3.9678,1.7793-3.9678,3.9668  C16.2676,80.6787,18.0469,82.458,20.2354,82.458z"/><path d="M20.2354,76.6406c-0.3311,0-0.5996,0.2686-0.5996,0.5996s0.2686,0.5996,0.5996,0.5996c0.3584,0,0.6504,0.292,0.6504,0.6504  c0,0.3594-0.292,0.6514-0.6504,0.6514c-0.3311,0-0.5996,0.2686-0.5996,0.5996s0.2686,0.5996,0.5996,0.5996  c1.0205,0,1.8496-0.8301,1.8496-1.8506S21.2559,76.6406,20.2354,76.6406z"/></svg>
