<?xml version="1.0" encoding="UTF-8"?>
<svg xmlns="http://www.w3.org/2000/svg" xmlns:xlink="http://www.w3.org/1999/xlink" width="55px" height="69px" viewBox="0 0 55 68" version="1.1">
<g id="surface1">
<path style=" stroke:none;fill-rule:nonzero;fill:rgb(0%,0%,0%);fill-opacity:1;" d="M 3.488281 47.492188 L 3.488281 50.105469 C 3.488281 50.292969 3.644531 50.445312 3.832031 50.445312 L 51.167969 50.445312 C 51.355469 50.445312 51.511719 50.292969 51.511719 50.105469 L 51.511719 47.492188 C 51.511719 47.304688 51.355469 47.152344 51.167969 47.152344 L 45.449219 47.152344 C 46.28125 46.535156 46.796875 45.550781 46.796875 44.472656 C 46.796875 43.160156 46.035156 42 44.875 41.457031 C 46.035156 40.910156 46.796875 39.75 46.796875 38.441406 C 46.796875 37.132812 46.035156 35.972656 44.875 35.425781 C 46.035156 34.878906 46.796875 33.722656 46.796875 32.414062 C 46.796875 31.109375 46.039062 29.945312 44.878906 29.394531 C 46.039062 28.847656 46.796875 27.6875 46.796875 26.378906 C 46.796875 26.34375 46.785156 26.308594 46.785156 26.273438 L 46.925781 26.40625 C 47.6875 27.113281 48.890625 27.128906 49.609375 26.441406 C 49.988281 26.074219 50.195312 25.585938 50.1875 25.066406 C 50.179688 24.546875 49.964844 24.070312 49.578125 23.722656 L 48.703125 22.914062 L 48.398438 20.382812 C 47.980469 16.953125 45.871094 13.988281 42.753906 12.449219 C 42.507812 12.328125 42.320312 12.101562 42.253906 11.835938 L 41.730469 9.84375 C 41.386719 8.515625 40.28125 7.476562 38.910156 7.203125 C 38.054688 7.039062 37.25 6.660156 36.574219 6.109375 L 35.753906 5.453125 C 34.277344 4.253906 32.351562 3.742188 30.460938 4.039062 L 27.9375 4.433594 C 27.910156 4.441406 27.882812 4.457031 27.859375 4.46875 C 27.617188 4.441406 27.375 4.441406 27.132812 4.46875 C 27.105469 4.457031 27.082031 4.441406 27.050781 4.433594 L 24.527344 4.039062 C 22.636719 3.742188 20.710938 4.253906 19.234375 5.453125 L 18.414062 6.113281 C 17.738281 6.660156 16.933594 7.039062 16.078125 7.203125 C 14.707031 7.476562 13.601562 8.515625 13.257812 9.84375 L 12.734375 11.839844 C 12.667969 12.101562 12.480469 12.328125 12.234375 12.449219 C 9.117188 13.988281 7.007812 16.953125 6.589844 20.382812 L 6.285156 22.917969 L 5.417969 23.71875 C 5.027344 24.070312 4.808594 24.570312 4.808594 25.097656 C 4.808594 25.5625 4.980469 26.007812 5.296875 26.347656 C 5.636719 26.726562 6.105469 26.949219 6.617188 26.96875 C 6.644531 26.972656 6.675781 26.972656 6.703125 26.972656 C 7.183594 26.972656 7.640625 26.796875 7.992188 26.46875 L 8.214844 26.261719 C 8.214844 26.300781 8.203125 26.335938 8.203125 26.378906 C 8.203125 27.683594 8.964844 28.847656 10.125 29.394531 C 8.960938 29.945312 8.203125 31.109375 8.203125 32.414062 C 8.203125 33.71875 8.964844 34.878906 10.128906 35.425781 C 8.964844 35.972656 8.203125 37.132812 8.203125 38.441406 C 8.203125 39.753906 8.96875 40.917969 10.128906 41.457031 C 8.964844 42.007812 8.203125 43.167969 8.203125 44.472656 C 8.203125 45.554688 8.71875 46.535156 9.546875 47.152344 L 3.832031 47.152344 C 3.644531 47.152344 3.488281 47.304688 3.488281 47.492188 Z M 32.9375 47.152344 L 32.9375 35.808594 C 32.9375 34.363281 32.371094 33.011719 31.347656 31.996094 C 31.199219 31.851562 31.03125 31.707031 30.789062 31.519531 C 29.839844 30.804688 28.703125 30.425781 27.5 30.425781 C 26.292969 30.425781 25.152344 30.804688 24.203125 31.523438 C 22.835938 32.550781 22.050781 34.113281 22.050781 35.808594 L 22.050781 47.152344 L 21.199219 47.152344 L 21.199219 35.808594 C 21.199219 33.847656 22.105469 32.042969 23.6875 30.851562 C 24.785156 30.019531 26.101562 29.578125 27.5 29.578125 C 28.890625 29.578125 30.210938 30.019531 31.3125 30.855469 C 31.539062 31.019531 31.75 31.203125 31.949219 31.402344 C 33.136719 32.574219 33.789062 34.140625 33.789062 35.808594 L 33.789062 47.152344 Z M 22.738281 47.152344 L 22.738281 35.808594 C 22.738281 34.328125 23.425781 32.964844 24.621094 32.066406 C 25.449219 31.4375 26.445312 31.105469 27.5 31.105469 C 28.550781 31.105469 29.542969 31.433594 30.367188 32.054688 C 30.582031 32.222656 30.734375 32.355469 30.859375 32.476562 C 31.757812 33.363281 32.25 34.546875 32.25 35.808594 L 32.25 47.152344 Z M 13.636719 47.152344 C 14.472656 46.523438 14.984375 45.511719 14.980469 44.472656 C 14.980469 43.617188 14.644531 42.804688 14.070312 42.195312 L 19.296875 42.195312 C 19.484375 42.195312 19.640625 42.042969 19.640625 41.855469 C 19.640625 41.667969 19.484375 41.515625 19.296875 41.515625 L 13.1875 41.515625 C 13.152344 41.496094 13.117188 41.476562 13.082031 41.457031 C 14.902344 40.617188 15.542969 38.1875 14.402344 36.5625 L 20.511719 36.5625 L 20.511719 47.152344 Z M 32.433594 30.921875 C 32.214844 30.703125 31.976562 30.496094 31.730469 30.3125 C 30.507812 29.386719 29.042969 28.898438 27.5 28.898438 C 25.949219 28.898438 24.488281 29.386719 23.269531 30.3125 C 21.515625 31.628906 20.511719 33.632812 20.511719 35.808594 L 20.511719 35.882812 L 13.78125 35.882812 C 13.5625 35.707031 13.332031 35.550781 13.082031 35.425781 C 14.222656 34.878906 14.988281 33.671875 14.980469 32.414062 C 14.980469 31.886719 14.855469 31.382812 14.625 30.921875 L 21.8125 30.921875 C 22 30.921875 22.15625 30.769531 22.15625 30.582031 C 22.15625 30.394531 22 30.242188 21.8125 30.242188 L 14.171875 30.242188 C 13.878906 29.882812 13.492188 29.609375 13.082031 29.398438 C 14.226562 28.847656 14.988281 27.640625 14.980469 26.378906 C 14.980469 26 14.914062 25.636719 14.792969 25.285156 L 18.4375 25.285156 C 18.625 25.285156 18.777344 25.132812 18.777344 24.945312 C 18.777344 24.757812 18.625 24.605469 18.4375 24.605469 L 14.464844 24.605469 C 13.882812 23.644531 12.816406 23.078125 11.703125 23.027344 L 15.257812 19.730469 L 15.339844 19.652344 L 22.761719 19.652344 C 22.976562 19.917969 23.269531 20.113281 23.605469 20.207031 C 23.992188 21.964844 25.675781 23.285156 27.496094 23.261719 C 29.695312 23.261719 31.488281 21.488281 31.488281 19.3125 C 31.488281 17.132812 29.695312 15.355469 27.496094 15.355469 C 26.859375 15.359375 26.242188 15.507812 25.675781 15.789062 L 25.675781 14.011719 L 33.507812 14.011719 L 34.433594 14.863281 L 38.914062 18.972656 L 35.066406 18.972656 C 34.878906 18.972656 34.726562 19.125 34.726562 19.3125 C 34.726562 19.5 34.878906 19.652344 35.066406 19.652344 L 39.652344 19.652344 L 43.289062 23.027344 C 42.414062 23.074219 41.554688 23.429688 40.949219 24.066406 C 40.875 24.144531 40.800781 24.230469 40.730469 24.324219 C 40.660156 24.410156 40.601562 24.5 40.542969 24.59375 C 40.539062 24.597656 40.535156 24.601562 40.53125 24.605469 L 24.453125 24.605469 C 24.261719 24.605469 24.109375 24.757812 24.109375 24.945312 C 24.109375 25.132812 24.261719 25.285156 24.453125 25.285156 L 40.203125 25.285156 C 40.082031 25.636719 40.011719 26 40.011719 26.378906 C 40.007812 27.640625 40.773438 28.847656 41.917969 29.398438 C 41.503906 29.609375 41.117188 29.882812 40.828125 30.242188 L 34.132812 30.242188 C 33.945312 30.242188 33.789062 30.394531 33.789062 30.582031 C 33.789062 30.769531 33.945312 30.921875 34.132812 30.921875 L 40.375 30.921875 C 39.511719 32.519531 40.265625 34.660156 41.914062 35.425781 C 41.847656 35.460938 41.785156 35.5 41.722656 35.539062 C 41.671875 35.566406 41.621094 35.59375 41.570312 35.625 C 41.453125 35.699219 41.339844 35.785156 41.234375 35.875 L 35.441406 35.875 C 35.25 35.875 35.097656 36.027344 35.097656 36.214844 C 35.097656 36.402344 35.25 36.554688 35.441406 36.554688 L 40.605469 36.554688 C 40.226562 37.105469 40.011719 37.761719 40.011719 38.441406 C 40.007812 39.703125 40.773438 40.90625 41.914062 41.457031 C 41.878906 41.472656 41.839844 41.496094 41.804688 41.515625 L 35.195312 41.515625 C 35.003906 41.515625 34.851562 41.667969 34.851562 41.855469 C 34.851562 42.042969 35.003906 42.195312 35.195312 42.195312 L 40.925781 42.195312 C 40.351562 42.808594 40.011719 43.617188 40.011719 44.472656 C 40.011719 45.511719 40.523438 46.523438 41.359375 47.152344 L 34.476562 47.152344 L 34.476562 35.808594 C 34.476562 33.960938 33.753906 32.222656 32.433594 30.921875 Z M 24.355469 20.230469 C 24.789062 20.144531 25.171875 19.890625 25.40625 19.535156 C 25.519531 20.578125 26.40625 21.398438 27.492188 21.398438 C 28.660156 21.398438 29.605469 20.460938 29.605469 19.308594 C 29.605469 18.15625 28.660156 17.21875 27.492188 17.21875 C 26.71875 17.21875 26.042969 17.640625 25.675781 18.261719 L 25.675781 16.585938 C 26.214844 16.214844 26.84375 16.042969 27.496094 16.035156 C 29.316406 16.035156 30.800781 17.503906 30.800781 19.3125 C 30.800781 21.113281 29.316406 22.582031 27.496094 22.582031 C 26.070312 22.589844 24.703125 21.605469 24.335938 20.238281 C 24.339844 20.234375 24.347656 20.234375 24.355469 20.234375 Z M 28.085938 9.042969 L 32.765625 13.332031 L 25.675781 13.332031 L 25.675781 10.839844 C 25.675781 10.515625 25.808594 10.191406 26.03125 9.957031 L 26.910156 9.042969 C 27.238281 8.738281 27.753906 8.734375 28.085938 9.042969 Z M 26.070312 19.308594 C 26.070312 18.53125 26.707031 17.898438 27.492188 17.898438 C 28.28125 17.898438 28.917969 18.53125 28.917969 19.308594 C 28.917969 20.085938 28.28125 20.71875 27.492188 20.71875 C 26.707031 20.71875 26.070312 20.085938 26.070312 19.308594 Z M 22.414062 18.65625 C 22.414062 18.8125 22.429688 18.863281 22.445312 18.972656 L 16.082031 18.972656 L 17.347656 17.808594 C 17.4375 18.054688 17.585938 18.28125 17.785156 18.460938 C 18.128906 18.773438 18.578125 18.921875 19.046875 18.878906 C 19.875 18.804688 20.523438 18.066406 20.523438 17.203125 L 20.523438 15.316406 C 20.523438 15.0625 20.621094 14.832031 20.800781 14.65625 C 20.976562 14.480469 21.214844 14.382812 21.46875 14.382812 C 21.988281 14.382812 22.414062 14.800781 22.414062 15.316406 Z M 46.109375 44.472656 C 46.109375 45.632812 45.367188 46.652344 44.253906 47.011719 C 44.253906 47.011719 44.253906 47.011719 44.25 47.011719 C 43.992188 47.105469 43.707031 47.152344 43.40625 47.152344 C 43.402344 47.152344 43.402344 47.152344 43.398438 47.152344 C 41.910156 47.148438 40.699219 45.949219 40.699219 44.472656 C 40.699219 43.515625 41.222656 42.625 42.066406 42.148438 C 42.460938 41.917969 42.925781 41.796875 43.402344 41.796875 C 43.707031 41.796875 43.992188 41.84375 44.261719 41.9375 C 45.367188 42.296875 46.109375 43.3125 46.109375 44.472656 Z M 46.109375 38.441406 C 46.109375 39.601562 45.367188 40.621094 44.25 40.980469 C 43.992188 41.070312 43.707031 41.117188 43.402344 41.117188 C 41.914062 41.117188 40.699219 39.917969 40.699219 38.441406 C 40.699219 37.691406 41.023438 36.972656 41.585938 36.464844 C 42.078125 36.015625 42.71875 35.769531 43.398438 35.769531 C 43.402344 35.769531 43.402344 35.769531 43.40625 35.769531 C 43.707031 35.769531 43.992188 35.816406 44.25 35.90625 C 44.253906 35.90625 44.253906 35.90625 44.253906 35.90625 C 44.257812 35.910156 44.257812 35.910156 44.261719 35.910156 C 45.367188 36.265625 46.109375 37.285156 46.109375 38.441406 Z M 46.109375 32.414062 C 46.109375 33.570312 45.367188 34.589844 44.257812 34.949219 C 43.980469 35.039062 43.691406 35.089844 43.402344 35.089844 C 41.914062 35.089844 40.699219 33.886719 40.699219 32.414062 C 40.699219 31.824219 40.894531 31.261719 41.261719 30.785156 C 41.757812 30.128906 42.558594 29.738281 43.402344 29.738281 C 43.625 29.738281 43.835938 29.773438 44.039062 29.820312 C 44.109375 29.839844 44.183594 29.851562 44.25 29.875 C 44.253906 29.875 44.261719 29.875 44.265625 29.875 C 45.367188 30.238281 46.109375 31.257812 46.109375 32.414062 Z M 44.261719 28.917969 C 44.257812 28.917969 44.257812 28.917969 44.257812 28.917969 C 43.980469 29.007812 43.691406 29.054688 43.40625 29.054688 C 43.402344 29.054688 43.398438 29.058594 43.398438 29.058594 C 41.910156 29.054688 40.699219 27.855469 40.699219 26.378906 C 40.699219 25.9375 40.808594 25.511719 41.019531 25.121094 C 41.019531 25.117188 41.027344 25.117188 41.027344 25.113281 C 41.15625 24.882812 41.300781 24.6875 41.449219 24.53125 C 41.53125 24.445312 41.625 24.371094 41.714844 24.296875 C 41.765625 24.253906 41.828125 24.207031 41.886719 24.167969 C 42.339844 23.867188 42.863281 23.710938 43.402344 23.710938 L 43.613281 23.714844 C 43.621094 23.714844 43.695312 23.722656 43.703125 23.722656 L 43.8125 23.738281 C 43.882812 23.75 43.949219 23.757812 43.992188 23.769531 L 44.097656 23.800781 L 45.953125 25.507812 C 46.058594 25.777344 46.109375 26.070312 46.109375 26.378906 C 46.109375 27.539062 45.367188 28.558594 44.261719 28.917969 Z M 30.566406 4.710938 C 32.261719 4.441406 33.996094 4.90625 35.320312 5.980469 L 36.136719 6.636719 C 36.898438 7.257812 37.8125 7.683594 38.777344 7.867188 C 39.886719 8.09375 40.785156 8.933594 41.066406 10.011719 L 41.585938 12.003906 C 41.703125 12.464844 42.019531 12.847656 42.449219 13.058594 C 45.359375 14.496094 47.328125 17.261719 47.714844 20.460938 L 47.925781 22.195312 L 29.46875 5.203125 C 29.371094 5.113281 29.269531 5.027344 29.15625 4.949219 C 29.152344 4.949219 29.144531 4.945312 29.140625 4.941406 C 29.140625 4.941406 29.136719 4.9375 29.132812 4.9375 Z M 7.273438 20.460938 C 7.660156 17.261719 9.628906 14.496094 12.539062 13.058594 C 12.972656 12.851562 13.285156 12.464844 13.402344 12.007812 L 13.921875 10.011719 C 14.203125 8.933594 15.101562 8.09375 16.210938 7.871094 C 17.175781 7.683594 18.089844 7.257812 18.847656 6.636719 L 19.667969 5.980469 C 20.746094 5.105469 22.09375 4.636719 23.472656 4.636719 C 23.789062 4.636719 24.105469 4.660156 24.421875 4.710938 L 25.855469 4.933594 C 25.847656 4.941406 25.839844 4.945312 25.832031 4.953125 C 25.738281 5.015625 25.648438 5.089844 25.5625 5.167969 C 25.550781 5.179688 25.53125 5.1875 25.519531 5.203125 L 7.0625 22.199219 Z M 7.523438 25.972656 C 7.285156 26.191406 6.980469 26.296875 6.648438 26.289062 C 6.324219 26.277344 6.023438 26.136719 5.804688 25.894531 C 5.605469 25.675781 5.496094 25.390625 5.496094 25.097656 C 5.496094 24.761719 5.636719 24.441406 5.882812 24.21875 L 25.988281 5.699219 C 26.253906 5.453125 26.585938 5.277344 26.941406 5.183594 C 26.972656 5.175781 27 5.167969 27.027344 5.160156 C 27.183594 5.128906 27.339844 5.113281 27.496094 5.113281 C 27.648438 5.113281 27.804688 5.128906 27.960938 5.160156 C 28.253906 5.226562 28.527344 5.34375 28.769531 5.511719 C 28.851562 5.570312 28.929688 5.632812 29 5.699219 L 48.144531 23.328125 L 49.113281 24.21875 C 49.355469 24.441406 49.492188 24.746094 49.5 25.074219 C 49.503906 25.40625 49.371094 25.71875 49.128906 25.953125 C 48.671875 26.394531 47.894531 26.375 47.394531 25.910156 L 44.792969 23.488281 L 44.691406 23.394531 C 44.691406 23.390625 44.6875 23.386719 44.683594 23.386719 C 44.667969 23.335938 44.640625 23.292969 44.601562 23.257812 L 34.96875 14.425781 L 33.875 13.425781 L 28.554688 8.542969 C 28.550781 8.542969 28.550781 8.542969 28.546875 8.542969 C 27.957031 7.996094 27.03125 7.996094 26.425781 8.558594 L 25.53125 9.492188 C 25.273438 9.761719 25.097656 10.105469 25.027344 10.46875 C 25.003906 10.59375 24.992188 10.714844 24.992188 10.839844 L 24.992188 18.65625 C 25 19.851562 23.089844 19.875 23.101562 18.65625 L 23.101562 15.316406 C 23.101562 14.425781 22.367188 13.703125 21.46875 13.703125 C 21.03125 13.703125 20.621094 13.871094 20.316406 14.171875 C 20.003906 14.472656 19.835938 14.878906 19.835938 15.316406 L 19.835938 17.203125 C 19.835938 17.71875 19.460938 18.160156 18.984375 18.203125 C 18.710938 18.230469 18.449219 18.140625 18.25 17.960938 C 18.050781 17.78125 17.945312 17.535156 17.945312 17.273438 L 17.945312 17.113281 C 17.945312 16.976562 17.863281 16.855469 17.738281 16.800781 C 17.613281 16.746094 17.464844 16.773438 17.367188 16.863281 L 10.398438 23.257812 C 10.363281 23.289062 10.335938 23.335938 10.316406 23.382812 L 10.28125 23.414062 Z M 8.890625 26.378906 C 8.890625 26.0625 8.941406 25.769531 9.039062 25.507812 L 10.855469 23.816406 C 11.792969 23.535156 12.878906 23.832031 13.554688 24.535156 C 13.703125 24.691406 13.84375 24.886719 13.972656 25.113281 C 13.972656 25.113281 13.976562 25.117188 13.980469 25.121094 C 14.1875 25.515625 14.292969 25.9375 14.292969 26.378906 C 14.292969 27.855469 13.085938 29.054688 11.601562 29.058594 C 11.601562 29.058594 11.597656 29.054688 11.59375 29.054688 C 11.308594 29.054688 11.019531 29.007812 10.742188 28.917969 C 10.742188 28.914062 10.738281 28.917969 10.738281 28.914062 C 9.632812 28.554688 8.890625 27.535156 8.890625 26.378906 Z M 8.890625 32.414062 C 8.890625 31.257812 9.632812 30.238281 10.738281 29.875 C 10.742188 29.875 10.746094 29.875 10.75 29.875 C 10.8125 29.851562 10.886719 29.839844 10.953125 29.824219 C 11.160156 29.773438 11.371094 29.738281 11.597656 29.738281 C 12.441406 29.738281 13.242188 30.128906 13.742188 30.789062 C 14.101562 31.257812 14.292969 31.816406 14.292969 32.414062 C 14.292969 33.886719 13.082031 35.089844 11.597656 35.089844 C 11.308594 35.089844 11.019531 35.039062 10.742188 34.945312 C 9.636719 34.585938 8.890625 33.566406 8.890625 32.414062 Z M 8.890625 38.441406 C 8.890625 37.285156 9.632812 36.269531 10.746094 35.90625 C 10.746094 35.90625 10.75 35.90625 10.75 35.90625 C 11.007812 35.816406 11.292969 35.769531 11.59375 35.769531 C 11.597656 35.769531 11.601562 35.769531 11.601562 35.769531 C 11.683594 35.769531 11.761719 35.773438 11.847656 35.777344 C 12.039062 35.800781 12.203125 35.832031 12.347656 35.875 C 12.589844 35.945312 12.808594 36.042969 13.027344 36.175781 C 13.804688 36.660156 14.300781 37.519531 14.292969 38.441406 C 14.292969 39.917969 13.082031 41.117188 11.597656 41.117188 C 11.292969 41.117188 11.007812 41.070312 10.738281 40.976562 C 9.632812 40.621094 8.890625 39.601562 8.890625 38.441406 Z M 8.890625 44.472656 C 8.890625 43.316406 9.636719 42.300781 10.75 41.9375 C 11.007812 41.84375 11.292969 41.796875 11.597656 41.796875 C 12.070312 41.796875 12.53125 41.917969 12.933594 42.148438 C 13.773438 42.625 14.292969 43.515625 14.292969 44.472656 C 14.292969 45.949219 13.085938 47.148438 11.601562 47.152344 C 11.597656 47.152344 11.597656 47.152344 11.59375 47.152344 C 11.292969 47.152344 11.007812 47.105469 10.75 47.011719 C 10.746094 47.011719 10.746094 47.011719 10.742188 47.011719 C 10.742188 47.011719 10.742188 47.011719 10.738281 47.011719 C 9.632812 46.652344 8.890625 45.632812 8.890625 44.472656 Z M 4.175781 47.832031 L 50.824219 47.832031 L 50.824219 49.765625 L 4.175781 49.765625 Z M 4.175781 47.832031 "/>
<path style=" stroke:none;fill-rule:nonzero;fill:rgb(0%,0%,0%);fill-opacity:1;" d="M 30.296875 38.238281 C 29.539062 38.238281 28.917969 38.851562 28.917969 39.601562 C 28.917969 40.351562 29.539062 40.960938 30.296875 40.960938 C 31.054688 40.960938 31.671875 40.351562 31.671875 39.601562 C 31.671875 38.851562 31.054688 38.238281 30.296875 38.238281 Z M 30.296875 40.28125 C 29.914062 40.28125 29.605469 39.976562 29.605469 39.601562 C 29.605469 39.226562 29.914062 38.917969 30.296875 38.917969 C 30.675781 38.917969 30.984375 39.226562 30.984375 39.601562 C 30.984375 39.976562 30.675781 40.28125 30.296875 40.28125 Z M 30.296875 40.28125 "/>
<path style=" stroke:none;fill-rule:nonzero;fill:rgb(0%,0%,0%);fill-opacity:1;" d="M 16.558594 8.738281 C 15.496094 9.328125 14.722656 10.441406 14.546875 11.632812 C 14.515625 11.820312 14.648438 11.992188 14.835938 12.019531 C 14.851562 12.023438 14.867188 12.023438 14.886719 12.023438 C 15.054688 12.023438 15.199219 11.902344 15.226562 11.734375 C 15.375 10.742188 16.015625 9.820312 16.898438 9.332031 C 17.0625 9.238281 17.121094 9.03125 17.027344 8.867188 C 16.933594 8.703125 16.726562 8.644531 16.558594 8.738281 Z M 16.558594 8.738281 "/>
<path style=" stroke:none;fill-rule:nonzero;fill:rgb(0%,0%,0%);fill-opacity:1;" d="M 12.234375 14.265625 C 10.402344 14.847656 8.960938 16.425781 8.558594 18.289062 C 8.519531 18.472656 8.636719 18.652344 8.824219 18.691406 C 8.847656 18.695312 8.871094 18.699219 8.894531 18.699219 C 9.054688 18.699219 9.195312 18.589844 9.230469 18.429688 C 9.582031 16.800781 10.84375 15.421875 12.445312 14.914062 C 12.625 14.855469 12.726562 14.664062 12.667969 14.484375 C 12.609375 14.304688 12.417969 14.207031 12.234375 14.265625 Z M 12.234375 14.265625 "/>
<path style=" stroke:none;fill-rule:nonzero;fill:rgb(0%,0%,0%);fill-opacity:1;" d="M 22.988281 5.546875 C 22.097656 5.515625 21.222656 5.9375 20.703125 6.65625 C 20.589844 6.808594 20.625 7.019531 20.78125 7.128906 C 20.839844 7.171875 20.910156 7.191406 20.980469 7.191406 C 21.085938 7.191406 21.191406 7.144531 21.261719 7.050781 C 21.640625 6.527344 22.296875 6.203125 22.964844 6.222656 C 23.15625 6.207031 23.3125 6.085938 23.320312 5.898438 C 23.328125 5.710938 23.179688 5.550781 22.988281 5.546875 Z M 22.988281 5.546875 "/>
<path style=" stroke:none;fill-rule:nonzero;fill:rgb(0%,0%,0%);fill-opacity:1;" d="M 38.089844 9.328125 C 38.972656 9.820312 39.613281 10.742188 39.761719 11.734375 C 39.789062 11.902344 39.933594 12.023438 40.101562 12.023438 C 40.121094 12.023438 40.136719 12.023438 40.152344 12.019531 C 40.339844 11.992188 40.46875 11.820312 40.441406 11.632812 C 40.265625 10.441406 39.492188 9.328125 38.429688 8.738281 C 38.261719 8.644531 38.054688 8.703125 37.960938 8.867188 C 37.867188 9.03125 37.925781 9.238281 38.089844 9.328125 Z M 38.089844 9.328125 "/>
<path style=" stroke:none;fill-rule:nonzero;fill:rgb(0%,0%,0%);fill-opacity:1;" d="M 42.542969 14.914062 C 44.144531 15.421875 45.40625 16.804688 45.757812 18.429688 C 45.792969 18.589844 45.933594 18.699219 46.09375 18.699219 C 46.117188 18.699219 46.140625 18.695312 46.164062 18.691406 C 46.351562 18.652344 46.46875 18.472656 46.429688 18.289062 C 46.027344 16.425781 44.585938 14.847656 42.753906 14.265625 C 42.574219 14.207031 42.378906 14.304688 42.320312 14.484375 C 42.261719 14.664062 42.363281 14.855469 42.542969 14.914062 Z M 42.542969 14.914062 "/>
<path style=" stroke:none;fill-rule:nonzero;fill:rgb(0%,0%,0%);fill-opacity:1;" d="M 32.023438 6.222656 C 32.691406 6.199219 33.347656 6.527344 33.726562 7.050781 C 33.796875 7.144531 33.902344 7.191406 34.007812 7.191406 C 34.078125 7.191406 34.148438 7.171875 34.207031 7.128906 C 34.363281 7.019531 34.398438 6.804688 34.285156 6.65625 C 33.765625 5.9375 32.898438 5.515625 32 5.546875 C 31.808594 5.550781 31.660156 5.710938 31.667969 5.898438 C 31.675781 6.085938 31.832031 6.207031 32.023438 6.222656 Z M 32.023438 6.222656 "/>
<path style=" stroke:none;fill-rule:nonzero;fill:rgb(0%,0%,0%);fill-opacity:1;" d="M 43.40625 24.132812 C 42.152344 24.132812 41.132812 25.140625 41.132812 26.378906 C 41.132812 27.621094 42.152344 28.628906 43.40625 28.628906 C 43.59375 28.628906 43.75 28.476562 43.75 28.289062 C 43.75 28.101562 43.59375 27.949219 43.40625 27.949219 C 42.53125 27.949219 41.820312 27.246094 41.820312 26.378906 C 41.820312 25.515625 42.53125 24.8125 43.40625 24.8125 C 44.277344 24.8125 44.988281 25.515625 44.988281 26.378906 C 44.988281 26.566406 45.144531 26.71875 45.332031 26.71875 C 45.523438 26.71875 45.675781 26.566406 45.675781 26.378906 C 45.675781 25.140625 44.65625 24.132812 43.40625 24.132812 Z M 43.40625 24.132812 "/>
<path style=" stroke:none;fill-rule:nonzero;fill:rgb(0%,0%,0%);fill-opacity:1;" d="M 43.40625 25.332031 C 43.214844 25.332031 43.0625 25.484375 43.0625 25.671875 C 43.0625 25.859375 43.214844 26.011719 43.40625 26.011719 C 43.609375 26.011719 43.777344 26.175781 43.777344 26.378906 C 43.777344 26.582031 43.609375 26.75 43.40625 26.75 C 43.214844 26.75 43.0625 26.902344 43.0625 27.089844 C 43.0625 27.277344 43.214844 27.429688 43.40625 27.429688 C 43.988281 27.429688 44.464844 26.957031 44.464844 26.378906 C 44.464844 25.800781 43.988281 25.332031 43.40625 25.332031 Z M 43.40625 25.332031 "/>
<path style=" stroke:none;fill-rule:nonzero;fill:rgb(0%,0%,0%);fill-opacity:1;" d="M 43.40625 30.164062 C 42.152344 30.164062 41.132812 31.171875 41.132812 32.414062 C 41.132812 33.652344 42.152344 34.660156 43.40625 34.660156 C 43.59375 34.660156 43.75 34.507812 43.75 34.320312 C 43.75 34.132812 43.59375 33.980469 43.40625 33.980469 C 42.53125 33.980469 41.820312 33.277344 41.820312 32.414062 C 41.820312 31.546875 42.53125 30.84375 43.40625 30.84375 C 44.277344 30.84375 44.988281 31.546875 44.988281 32.414062 C 44.988281 32.601562 45.144531 32.753906 45.332031 32.753906 C 45.523438 32.753906 45.675781 32.601562 45.675781 32.414062 C 45.675781 31.171875 44.65625 30.164062 43.40625 30.164062 Z M 43.40625 30.164062 "/>
<path style=" stroke:none;fill-rule:nonzero;fill:rgb(0%,0%,0%);fill-opacity:1;" d="M 43.40625 31.363281 C 43.214844 31.363281 43.0625 31.515625 43.0625 31.703125 C 43.0625 31.890625 43.214844 32.042969 43.40625 32.042969 C 43.609375 32.042969 43.777344 32.210938 43.777344 32.414062 C 43.777344 32.617188 43.609375 32.78125 43.40625 32.78125 C 43.214844 32.78125 43.0625 32.933594 43.0625 33.121094 C 43.0625 33.308594 43.214844 33.460938 43.40625 33.460938 C 43.988281 33.460938 44.464844 32.992188 44.464844 32.414062 C 44.464844 31.835938 43.988281 31.363281 43.40625 31.363281 Z M 43.40625 31.363281 "/>
<path style=" stroke:none;fill-rule:nonzero;fill:rgb(0%,0%,0%);fill-opacity:1;" d="M 41.132812 38.445312 C 41.132812 39.683594 42.152344 40.695312 43.40625 40.695312 C 43.59375 40.695312 43.75 40.542969 43.75 40.355469 C 43.75 40.167969 43.59375 40.015625 43.40625 40.015625 C 42.53125 40.015625 41.820312 39.308594 41.820312 38.445312 C 41.820312 37.582031 42.53125 36.878906 43.40625 36.878906 C 44.277344 36.878906 44.988281 37.582031 44.988281 38.445312 C 44.988281 38.632812 45.144531 38.785156 45.332031 38.785156 C 45.523438 38.785156 45.675781 38.632812 45.675781 38.445312 C 45.675781 37.207031 44.65625 36.199219 43.40625 36.199219 C 42.152344 36.199219 41.132812 37.207031 41.132812 38.445312 Z M 41.132812 38.445312 "/>
<path style=" stroke:none;fill-rule:nonzero;fill:rgb(0%,0%,0%);fill-opacity:1;" d="M 43.40625 37.398438 C 43.214844 37.398438 43.0625 37.550781 43.0625 37.738281 C 43.0625 37.925781 43.214844 38.078125 43.40625 38.078125 C 43.609375 38.078125 43.777344 38.242188 43.777344 38.445312 C 43.777344 38.648438 43.609375 38.816406 43.40625 38.816406 C 43.214844 38.816406 43.0625 38.964844 43.0625 39.152344 C 43.0625 39.339844 43.214844 39.492188 43.40625 39.492188 C 43.988281 39.492188 44.464844 39.023438 44.464844 38.445312 C 44.464844 37.867188 43.988281 37.398438 43.40625 37.398438 Z M 43.40625 37.398438 "/>
<path style=" stroke:none;fill-rule:nonzero;fill:rgb(0%,0%,0%);fill-opacity:1;" d="M 41.132812 44.476562 C 41.132812 45.71875 42.152344 46.726562 43.40625 46.726562 C 43.59375 46.726562 43.75 46.574219 43.75 46.386719 C 43.75 46.199219 43.59375 46.046875 43.40625 46.046875 C 42.53125 46.046875 41.820312 45.34375 41.820312 44.476562 C 41.820312 43.613281 42.53125 42.910156 43.40625 42.910156 C 44.277344 42.910156 44.988281 43.613281 44.988281 44.476562 C 44.988281 44.664062 45.144531 44.816406 45.332031 44.816406 C 45.523438 44.816406 45.675781 44.664062 45.675781 44.476562 C 45.675781 43.238281 44.65625 42.230469 43.40625 42.230469 C 42.152344 42.230469 41.132812 43.238281 41.132812 44.476562 Z M 41.132812 44.476562 "/>
<path style=" stroke:none;fill-rule:nonzero;fill:rgb(0%,0%,0%);fill-opacity:1;" d="M 43.40625 43.429688 C 43.214844 43.429688 43.0625 43.582031 43.0625 43.769531 C 43.0625 43.957031 43.214844 44.109375 43.40625 44.109375 C 43.609375 44.109375 43.777344 44.273438 43.777344 44.476562 C 43.777344 44.679688 43.609375 44.847656 43.40625 44.847656 C 43.214844 44.847656 43.0625 45 43.0625 45.1875 C 43.0625 45.375 43.214844 45.527344 43.40625 45.527344 C 43.988281 45.527344 44.464844 45.054688 44.464844 44.476562 C 44.464844 43.898438 43.988281 43.429688 43.40625 43.429688 Z M 43.40625 43.429688 "/>
<path style=" stroke:none;fill-rule:nonzero;fill:rgb(0%,0%,0%);fill-opacity:1;" d="M 11.59375 28.628906 C 11.78125 28.628906 11.9375 28.476562 11.9375 28.289062 C 11.9375 28.101562 11.78125 27.949219 11.59375 27.949219 C 10.71875 27.949219 10.007812 27.246094 10.007812 26.378906 C 10.007812 25.515625 10.71875 24.8125 11.59375 24.8125 C 12.46875 24.8125 13.179688 25.515625 13.179688 26.378906 C 13.171875 26.820312 13.871094 26.820312 13.867188 26.378906 C 13.867188 25.140625 12.847656 24.132812 11.59375 24.132812 C 10.339844 24.132812 9.320312 25.140625 9.320312 26.378906 C 9.320312 27.621094 10.339844 28.628906 11.59375 28.628906 Z M 11.59375 28.628906 "/>
<path style=" stroke:none;fill-rule:nonzero;fill:rgb(0%,0%,0%);fill-opacity:1;" d="M 11.59375 25.332031 C 11.402344 25.332031 11.25 25.484375 11.25 25.671875 C 11.25 25.859375 11.402344 26.011719 11.59375 26.011719 C 11.796875 26.011719 11.964844 26.175781 11.964844 26.378906 C 11.964844 26.582031 11.796875 26.75 11.59375 26.75 C 11.402344 26.75 11.25 26.902344 11.25 27.089844 C 11.25 27.277344 11.402344 27.429688 11.59375 27.429688 C 12.179688 27.429688 12.652344 26.957031 12.652344 26.378906 C 12.652344 25.800781 12.179688 25.332031 11.59375 25.332031 Z M 11.59375 25.332031 "/>
<path style=" stroke:none;fill-rule:nonzero;fill:rgb(0%,0%,0%);fill-opacity:1;" d="M 11.9375 34.320312 C 11.9375 34.132812 11.78125 33.980469 11.59375 33.980469 C 10.71875 33.980469 10.007812 33.277344 10.007812 32.414062 C 10.007812 31.546875 10.71875 30.84375 11.59375 30.84375 C 12.46875 30.84375 13.179688 31.546875 13.179688 32.414062 C 13.171875 32.855469 13.871094 32.855469 13.867188 32.414062 C 13.867188 31.171875 12.847656 30.164062 11.59375 30.164062 C 10.339844 30.164062 9.320312 31.171875 9.320312 32.414062 C 9.320312 33.652344 10.339844 34.660156 11.59375 34.660156 C 11.78125 34.660156 11.9375 34.507812 11.9375 34.320312 Z M 11.9375 34.320312 "/>
<path style=" stroke:none;fill-rule:nonzero;fill:rgb(0%,0%,0%);fill-opacity:1;" d="M 11.59375 31.363281 C 11.402344 31.363281 11.25 31.515625 11.25 31.703125 C 11.25 31.890625 11.402344 32.042969 11.59375 32.042969 C 11.796875 32.042969 11.964844 32.210938 11.964844 32.414062 C 11.964844 32.617188 11.796875 32.78125 11.59375 32.78125 C 11.402344 32.78125 11.25 32.933594 11.25 33.121094 C 11.25 33.308594 11.402344 33.460938 11.59375 33.460938 C 12.179688 33.460938 12.652344 32.992188 12.652344 32.414062 C 12.652344 31.835938 12.179688 31.363281 11.59375 31.363281 Z M 11.59375 31.363281 "/>
<path style=" stroke:none;fill-rule:nonzero;fill:rgb(0%,0%,0%);fill-opacity:1;" d="M 11.9375 40.355469 C 11.9375 40.167969 11.78125 40.015625 11.59375 40.015625 C 10.71875 40.015625 10.007812 39.308594 10.007812 38.445312 C 10.007812 37.582031 10.71875 36.878906 11.59375 36.878906 C 12.46875 36.878906 13.179688 37.582031 13.179688 38.445312 C 13.171875 38.886719 13.871094 38.886719 13.867188 38.445312 C 13.867188 37.207031 12.847656 36.199219 11.59375 36.199219 C 10.339844 36.199219 9.320312 37.207031 9.320312 38.445312 C 9.320312 39.683594 10.339844 40.695312 11.59375 40.695312 C 11.78125 40.695312 11.9375 40.542969 11.9375 40.355469 Z M 11.9375 40.355469 "/>
<path style=" stroke:none;fill-rule:nonzero;fill:rgb(0%,0%,0%);fill-opacity:1;" d="M 11.59375 37.398438 C 11.402344 37.398438 11.25 37.550781 11.25 37.738281 C 11.25 37.925781 11.402344 38.078125 11.59375 38.078125 C 11.796875 38.078125 11.964844 38.242188 11.964844 38.445312 C 11.964844 38.648438 11.796875 38.816406 11.59375 38.816406 C 11.402344 38.816406 11.25 38.964844 11.25 39.152344 C 11.25 39.339844 11.402344 39.492188 11.59375 39.492188 C 12.179688 39.492188 12.652344 39.023438 12.652344 38.445312 C 12.652344 37.867188 12.179688 37.398438 11.59375 37.398438 Z M 11.59375 37.398438 "/>
<path style=" stroke:none;fill-rule:nonzero;fill:rgb(0%,0%,0%);fill-opacity:1;" d="M 11.59375 46.726562 C 11.78125 46.726562 11.9375 46.574219 11.9375 46.386719 C 11.9375 46.199219 11.78125 46.046875 11.59375 46.046875 C 10.71875 46.046875 10.007812 45.34375 10.007812 44.476562 C 10.007812 43.613281 10.71875 42.910156 11.59375 42.910156 C 12.46875 42.910156 13.179688 43.613281 13.179688 44.476562 C 13.179688 44.664062 13.332031 44.816406 13.523438 44.816406 C 13.710938 44.816406 13.867188 44.664062 13.867188 44.476562 C 13.867188 43.238281 12.847656 42.230469 11.59375 42.230469 C 10.339844 42.230469 9.320312 43.238281 9.320312 44.476562 C 9.320312 45.71875 10.339844 46.726562 11.59375 46.726562 Z M 11.59375 46.726562 "/>
<path style=" stroke:none;fill-rule:nonzero;fill:rgb(0%,0%,0%);fill-opacity:1;" d="M 11.59375 43.429688 C 11.402344 43.429688 11.25 43.582031 11.25 43.769531 C 11.25 43.957031 11.402344 44.109375 11.59375 44.109375 C 11.796875 44.109375 11.964844 44.273438 11.964844 44.476562 C 11.964844 44.679688 11.796875 44.847656 11.59375 44.847656 C 11.402344 44.847656 11.25 45 11.25 45.1875 C 11.25 45.375 11.402344 45.527344 11.59375 45.527344 C 12.179688 45.527344 12.652344 45.054688 12.652344 44.476562 C 12.652344 43.898438 12.179688 43.429688 11.59375 43.429688 Z M 11.59375 43.429688 "/>
</g>
</svg>
